<svg width="256" height="256" viewBox="0 0 256 256" xmlns="http://www.w3.org/2000/svg">
  <!-- Background circle with gradient -->
  <defs>
    <linearGradient id="bgGradient" x1="0%" y1="0%" x2="100%" y2="100%">
      <stop offset="0%" style="stop-color:#4f46e5;stop-opacity:1" />
      <stop offset="100%" style="stop-color:#7c3aed;stop-opacity:1" />
    </linearGradient>
    <linearGradient id="textGradient" x1="0%" y1="0%" x2="100%" y2="100%">
      <stop offset="0%" style="stop-color:#ffffff;stop-opacity:1" />
      <stop offset="100%" style="stop-color:#e0e7ff;stop-opacity:1" />
    </linearGradient>
  </defs>
  
  <!-- Main background -->
  <circle cx="128" cy="128" r="120" fill="url(#bgGradient)" stroke="#1e1b4b" stroke-width="4"/>
  
  <!-- Document icon -->
  <rect x="70" y="60" width="80" height="100" rx="8" fill="white" opacity="0.9"/>
  <rect x="70" y="60" width="80" height="20" rx="8" fill="url(#textGradient)"/>
  
  <!-- Text lines -->
  <rect x="80" y="80" width="60" height="3" rx="1" fill="#6366f1"/>
  <rect x="80" y="90" width="50" height="3" rx="1" fill="#8b5cf6"/>
  <rect x="80" y="100" width="55" height="3" rx="1" fill="#6366f1"/>
  <rect x="80" y="110" width="45" height="3" rx="1" fill="#8b5cf6"/>
  
  <!-- AI sparkle effect -->
  <g transform="translate(160,80)">
    <path d="M 0,-8 L 2,0 L 0,8 L -2,0 Z" fill="#fbbf24" opacity="0.8"/>
    <path d="M -8,0 L 0,2 L 8,0 L 0,-2 Z" fill="#fbbf24" opacity="0.8"/>
  </g>
  
  <g transform="translate(180,120)">
    <path d="M 0,-6 L 1.5,0 L 0,6 L -1.5,0 Z" fill="#fbbf24" opacity="0.6"/>
    <path d="M -6,0 L 0,1.5 L 6,0 L 0,-1.5 Z" fill="#fbbf24" opacity="0.6"/>
  </g>
  
  <g transform="translate(90,140)">
    <path d="M 0,-4 L 1,0 L 0,4 L -1,0 Z" fill="#fbbf24" opacity="0.7"/>
    <path d="M -4,0 L 0,1 L 4,0 L 0,-1 Z" fill="#fbbf24" opacity="0.7"/>
  </g>
  
  <!-- Magic wand/pencil -->
  <g transform="translate(170,170) rotate(45)">
    <rect x="-2" y="-12" width="4" height="20" rx="2" fill="#f59e0b"/>
    <rect x="-1" y="-10" width="2" height="16" rx="1" fill="#fbbf24"/>
    <polygon points="-2,8 2,8 0,12" fill="#374151"/>
  </g>
  
  <!-- Refine arrow -->
  <g transform="translate(128,190)">
    <path d="M -15,0 L 15,0 M 10,-5 L 15,0 L 10,5" stroke="white" stroke-width="3" fill="none" stroke-linecap="round" stroke-linejoin="round"/>
  </g>
</svg>